<svg viewBox="0 0 44.979 21.167" xmlns="http://www.w3.org/2000/svg"><path d="M82.536 81.714v11.843h7.9375v3.9687H82.536v3.9687h11.906v-11.906h-7.9375v-3.9052h7.9375v-3.9688h-7.9375zm15.875 0v3.9688h3.9687v15.875h3.9688v-15.875h3.9688V81.714h-7.9375zm15.875 0v7.9375h3.9688V81.714zm3.9688 7.9375v11.906h3.9688v-11.906zm3.9688 0h3.9688V81.714h-3.9688v3.9688z" opacity=".1875" transform="translate(-81.213 -80.391)"/><path fill="#FF6200" d="M81.213 80.391h3.9688v3.9688H81.213z" transform="translate(-81.213 -80.391)"/><path fill="#FF3A00" d="M85.182 80.391h3.9688v3.9688H85.182z" transform="translate(-81.213 -80.391)"/><path fill="red" d="M89.151 80.391h3.9688v3.9688H89.151z" transform="translate(-81.213 -80.391)"/><path fill="#FF9000" d="M81.213 84.296h3.9688v3.9688H81.213z" transform="translate(-81.213 -80.391)"/><path fill="#FFD600" d="M81.213 88.265h3.9688v3.9688H81.213z" transform="translate(-81.213 -80.391)"/><path fill="#FFF800" d="M85.182 88.265h3.9688v3.9688H85.182z" transform="translate(-81.213 -80.391)"/><path fill="#E9FF00" d="M89.151 88.265h3.9688v3.9688H89.151z" transform="translate(-81.213 -80.391)"/><path fill="#A4FF00" d="M89.151 92.234h3.9688v3.9688H89.151z" transform="translate(-81.213 -80.391)"/><path fill="#5EFF00" d="M89.151 96.202h3.9688v3.9688H89.151z" transform="translate(-81.213 -80.391)"/><path fill="#92FF00" d="M85.182 96.202h3.9688v3.9688H85.182z" transform="translate(-81.213 -80.391)"/><path fill="#C0FF00" d="M81.213 96.202h3.9688v3.9688H81.213z" transform="translate(-81.213 -80.391)"/><path fill="#005AFF" d="M101.06 80.391h3.9688v3.9688H101.06z" transform="translate(-81.213 -80.391)"/><path fill="#0083FF" d="M97.088 80.391h3.9688v3.9688H97.088z" transform="translate(-81.213 -80.391)"/><path fill="#0026FF" d="M105.03 80.391h3.9688v3.9688H105.03z" transform="translate(-81.213 -80.391)"/><path fill="#00D9FF" d="M101.06 84.36h3.9688v3.9688H101.06z" transform="translate(-81.213 -80.391)"/><path fill="#4700FF" d="M112.96 80.391h3.9688v3.9688H112.96z" transform="translate(-81.213 -80.391)"/><path fill="#7000FF" d="M120.9 80.391h3.9688v3.9688H120.9z" transform="translate(-81.213 -80.391)"/><path fill="#00FFC2" d="M101.06 88.329h3.9688v3.9688H101.06z" transform="translate(-81.213 -80.391)"/><path fill="#00FF89" d="M101.06 92.297h3.9688v3.9688H101.06z" transform="translate(-81.213 -80.391)"/><path fill="#00FF43" d="M101.06 96.266h3.9688v3.9688H101.06z" transform="translate(-81.213 -80.391)"/><path fill="#7000FF" d="M112.96 84.36h3.9688v3.9688H112.96z" transform="translate(-81.213 -80.391)"/><path fill="#9E00FF" d="M120.9 84.36h3.9688v3.9688H120.9z" transform="translate(-81.213 -80.391)"/><path fill="#D800FF" d="M116.93 88.329h3.9688v3.9688H116.93z" transform="translate(-81.213 -80.391)"/><path fill="#FF00E7" d="M116.93 92.297h3.9688v3.9688H116.93z" transform="translate(-81.213 -80.391)"/><path fill="#FF009C" d="M116.93 96.266h3.9688v3.9688H116.93z" transform="translate(-81.213 -80.391)"/></svg>